:FULLY-SPECIFIED
:FORCE-ALL-JOINTS-BE-3DOF
:DEGREES
713
root 5.53939 21.5033 7.37602 -44.6884 -88.7415 60.8466
lfemur -34.9956 -12.498 9.82684
ltibia 72.9483 0 0
lfoot 5.88796 -7.45612 0
ltoes 31.4781 0 0
rfemur -32.4126 -0.866112 -0.557946
rtibia 85.7264 0 0
rfoot 20.2108 -17.8752 0
rtoes 38.6021 0 0
lowerback 6.25975 -0.823868 -1.884
upperback -1.21556 -1.33879 -1.58353
thorax -4.76869 -0.63977 -0.445101
lowerneck -6.74521 -6.14589 -2.26055
upperneck -0.212131 -8.17026 4.91549
head 1.39624 -4.02082 1.64825
lclavicle -1.2921e-14 -4.41302e-14 0
lhumerus 1.71129 -20.9172 15.4022
lradius 45.9936 0 0
lwrist 23.5511 0 0
lhand -21.4933 -3.18174 0
lfingers 7.12502 0 0
lthumb 4.89802 26.7416 0
rclavicle -1.2921e-14 -4.41302e-14 0
rhumerus -12.3454 -3.453 -26.3227
rradius 99.2425 0 0
rwrist -9.46951 0 0
rhand -28.5883 -36.048 0
rfingers 7.12502 0 0
rthumb -1.95411 -786.019 0
714
root 5.51632 21.5248 7.5857 -114.811 -88.5347 131.091
lfemur -34.2732 -13.513 9.15372
ltibia 69.0394 0 0
lfoot 6.68345 -8.29926 0
ltoes 30.7132 0 0
rfemur -33.219 -1.14835 -1.23526
rtibia 91.4966 0 0
rfoot 20.8563 -19.1874 0
rtoes 40.821 0 0
lowerback 6.14711 -0.699867 -1.84115
upperback -1.26194 -1.16723 -1.5753
thorax -4.75466 -0.555866 -0.47938
lowerneck -6.80973 -6.29731 -2.34534
upperneck -0.317173 -8.36323 4.91648
head 1.38488 -4.11871 1.65447
lclavicle 3.77691e-15 -7.95139e-16 0
lhumerus -0.00677256 -20.6113 16.0088
lradius 45.2287 0 0
lwrist 22.9737 0 0
lhand -21.8284 -3.2593 0
lfingers 7.12502 0 0
lthumb 4.57444 26.6713 0
rclavicle 3.77691e-15 -7.95139e-16 0
rhumerus -11.6072 -2.62759 -27.0112
rradius 99.2225 0 0
rwrist -9.63092 0 0
rhand -27.5551 -34.9797 0
rfingers 7.12502 0 0
rthumb -0.956194 -784.957 0
715
root 5.48503 21.4809 7.67643 -142.036 -87.3445 158.385
lfemur -34.25 -13.2311 8.92746
ltibia 68.8748 -0 0
lfoot 6.43968 -8.05349 -0.0689626
ltoes 30.6439 -0 0
rfemur -33.0396 -1.3298 -1.0145
rtibia 91.2262 -0 0
rfoot 20.5278 -19.3348 0.0500713
rtoes 40.3134 -0 0
lowerback 6.10379 -0.654097 -1.83602
upperback -1.26021 -1.10424 -1.59606
thorax -4.72668 -0.525153 -0.505493
lowerneck -6.79717 -6.305 -2.33566
upperneck -0.339321 -8.37256 4.92386
head 1.37596 -4.12316 1.6557
lclavicle 3.80533e-15 -6.29015e-16 3.22077e-32
lhumerus -0.454205 -20.8443 16.6408
lradius 45.4346 -0 0
lwrist 22.8712 0 0
lhand -21.8133 -3.28541 -0.000471857
lfingers 7.12502 -0 0
lthumb 4.58902 26.6448 -0.000463471
rclavicle 3.80533e-15 -6.29015e-16 3.22077e-32
rhumerus -11.4098 -2.18279 -27.6065
rradius 99.0638 -0 0
rwrist -9.49646 0 0
rhand -27.5044 -34.844 0.00562111
rfingers 7.12502 -0 0
rthumb -0.90725 -64.8211 0.00544224
716
root 5.45103 21.4332 7.77489 -152.025 -85.8109 168.45
lfemur -34.227 -12.9225 8.68231
ltibia 68.7005 -0 0
lfoot 6.17297 -7.78459 -0.142905
ltoes 30.57 -0 0
rfemur -32.8442 -1.52795 -0.77401
rtibia 90.9254 -0 0
rfoot 20.1693 -19.4942 0.103697
rtoes 39.7588 -0 0
lowerback 6.05677 -0.604433 -1.83058
upperback -1.25832 -1.03589 -1.61868
thorax -4.69628 -0.491816 -0.533843
lowerneck -6.78343 -6.31322 -2.32507
upperneck -0.36331 -8.38252 4.93194
head 1.36628 -4.12791 1.65706
lclavicle 3.79998e-15 -5.0219e-16 5.87174e-32
lhumerus -0.942819 -21.093 17.331
lradius 45.6596 -0 0
lwrist 22.7603 0 0
lhand -21.7964 -3.31381 -0.000981026
lfingers 7.12502 -0 0
lthumb 4.60536 26.6159 -0.000963656
rclavicle 3.79998e-15 -5.0219e-16 5.87174e-32
rhumerus -11.2011 -1.69752 -28.2515
rradius 98.8911 -0 0
rwrist -9.34992 0 0
rhand -27.4503 -34.6976 0.0116368
rfingers 7.12502 -0 0
rthumb -0.855011 -64.6744 0.0112666
717
root 5.41441 21.3817 7.88082 -156.824 -84.0948 173.331
lfemur -34.2047 -12.5881 8.41897
ltibia 68.5168 -0 0
lfoot 5.88399 -7.49324 -0.221309
ltoes 30.4916 -0 0
rfemur -32.6336 -1.74246 -0.514607
rtibia 90.5952 -0 0
rfoot 19.7819 -19.6653 0.160496
rtoes 39.1585 -0 0
lowerback 6.0062 -0.551003 -1.82483
upperback -1.25628 -0.962375 -1.64308
thorax -4.66354 -0.455937 -0.564351
lowerneck -6.76854 -6.32196 -2.31359
upperneck -0.389077 -8.39309 4.94069
head 1.35584 -4.13294 1.65853
lclavicle 3.76221e-15 -4.13496e-16 7.96071e-32
lhumerus -1.47228 -21.3553 18.0785
lradius 45.903 -0 0
lwrist 22.6411 0 0
lhand -21.7777 -3.34444 -0.00152364
lfingers 7.12502 -0 0
lthumb 4.62341 26.5848 -0.00149675
rclavicle 3.76221e-15 -4.13496e-16 7.96071e-32
rhumerus -10.9829 -1.17256 -28.9441
rradius 98.7049 -0 0
rwrist -9.1917 0 0
rhand -27.3929 -34.5408 0.018002
rfingers 7.12502 -0 0
rthumb -0.799586 -64.5172 0.0174293
718
root 5.37524 21.3265 7.99397 -159.572 -82.2352 176.166
lfemur -34.1833 -12.2288 8.13818
ltibia 68.324 -0 0
lfoot 5.57341 -7.1801 -0.303646
ltoes 30.4087 -0 0
rfemur -32.4083 -1.97302 -0.237119
rtibia 90.2364 -0 0
rfoot 19.3664 -19.8477 0.220081
rtoes 38.5143 -0 0
lowerback 5.95218 -0.493933 -1.81879
upperback -1.2541 -0.883857 -1.66921
thorax -4.62856 -0.4176 -0.596939
lowerneck -6.75255 -6.33119 -2.30125
upperneck -0.416563 -8.40424 4.95009
head 1.34469 -4.13824 1.66012
lclavicle 3.69334e-15 -3.61765e-16 9.50237e-32
lhumerus -2.04226 -21.6292 18.8822
lradius 46.1642 -0 0
lwrist 22.5141 0 0
lhand -21.7573 -3.37721 -0.00209574
lfingers 7.12502 -0 0
lthumb 4.64311 26.5515 -0.00205887
rclavicle 3.69334e-15 -3.61765e-16 9.50237e-32
rhumerus -10.7572 -0.608713 -29.6822
rradius 98.5057 -0 0
rwrist -9.02215 0 0
rhand -27.3324 -34.3739 0.0246724
rfingers 7.12502 -0 0
rthumb -0.741076 -64.35 0.0238877
